PathFileType	4	(X/Y/Z)	OpenSim_Sub10_CSStiffKnee_Accel.trc
DataRate	CameraRate	NumFrames	NumMarkers	Units	OrigDataRate	OrigDataStartFrame	OrigNumFrames
100	100	41	8	m	100	3066	8174
Frame#	Time	torso_imu_offset_imu	pelvis_imu_offset_imu	tibia_r_imu_offset_imu	femur_r_imu_offset_imu	tibia_l_imu_offset_imu	femur_l_imu_offset_imu	toes_r_imu_offset_imu	toes_l_imu_offset_imu
				X1	Y1	Z1	X2	Y2	Z2	X3	Y3	Z3	X4	Y4	Z4	X5	Y5	Z5	X6	Y6	Z6	X7	Y7	Z7	X8		Y8	Z8	

3066	30.65000000	9.63324868	-1.47177936	7.15360328	9.62252675	1.94145599	4.75687153	11.63398154	-0.70344031	2.14995660	10.31762717	-1.91596462	-0.25135242	13.43360821	-0.04115208	1.83058556	10.34146680	4.05519174	0.96904785	5.27857485	0.78826404	9.56293231	11.16366860	-7.54526111	18.38586404
3067	30.66000000	10.29860485	-1.21041472	7.77110833	10.73766119	1.08900415	6.15884109	12.39613765	-1.49418466	1.97387844	10.79784553	-2.07820995	-0.18601033	16.86781162	1.83498796	4.88336485	15.44948460	4.88689025	0.42523667	4.86760418	0.34400485	10.21466919	11.83833176	-6.21002713	15.25442382
3068	30.67000000	10.94209734	-0.67311333	7.98945388	12.34366731	-0.02481837	6.73784185	13.51265693	-2.45040042	2.29576368	11.25049650	-2.09563105	-0.10122001	19.08163131	0.89086991	7.31096187	21.78843978	5.87160447	-0.51617814	4.15658649	-0.90001883	10.52600852	14.41737021	3.34930612	16.09513929
3069	30.68000000	11.43173081	-0.18512333	7.64134885	14.15963168	-1.26563386	6.72678454	14.53260610	-3.08940122	3.38234698	11.48038026	-1.83851110	0.03383243	16.25411080	-1.94692140	6.87361108	21.93166293	5.43443315	-1.36373758	3.94276769	-2.47341777	10.20667028	16.35219270	6.46529766	17.86493238
3070	30.69000000	11.81977679	0.28764823	7.08726973	14.92561718	-2.03724025	6.61639254	15.07273562	-3.72713471	3.50630421	11.60129317	-1.30546737	0.21503418	12.67282770	-4.30417534	4.43483546	17.09686698	3.58338097	-2.00139745	3.58614527	-2.81375915	10.23596119	14.85956492	-2.51845001	16.12836123
3071	30.70000000	11.93281988	0.79583999	6.82262195	13.83931254	-1.31199336	6.20865536	15.55404312	-4.25252475	3.10662770	11.59342391	-0.75788091	0.42310807	11.19212085	-6.56330343	2.60701347	11.58366492	1.93291788	-2.38417245	7.38440740	-2.48107793	12.96281809	7.29845076	-3.63007863	11.67174199
3072	30.71000000	11.60559824	1.39163866	6.66903492	11.88948466	0.11019974	5.79200179	16.08722236	-4.25961022	2.79006513	11.57456042	-0.42205329	0.59392626	9.12422137	-6.80948292	1.48244554	8.49586776	0.62582867	-2.13935101	5.31665002	-3.25343713	9.77202281	6.61289487	0.24205615	11.72067206
3073	30.72000000	11.09125915	1.80085824	6.48420587	10.35288888	1.30678509	5.46784331	16.02337082	-3.82674384	0.94651920	11.48316458	-0.16018076	0.55773493	7.13651074	-5.55319836	-0.55612113	7.39583120	-0.99701817	-1.17588809	8.03019209	3.22911727	11.89195060	6.73299957	-1.17365008	10.92593056
3074	30.73000000	10.64402393	1.61415535	5.99310106	8.99817076	2.03371306	5.01596866	15.46071606	-2.98917253	-2.39983698	11.04455199	0.24889918	0.86792968	6.88815000	-5.17216564	-1.96032664	6.70740433	-2.64126957	-0.60908491	15.72588772	3.86819812	15.00623420	5.32320659	1.21074262	10.98487486
3075	30.74000000	10.16833974	1.47254796	5.46584414	7.91932497	2.37043504	4.62434562	14.42777829	-1.85407079	-3.62548155	10.35530548	0.78885912	1.64878995	7.72652065	-5.11710261	-2.75478547	6.75383275	-3.21639683	-0.79577299	16.69774361	-1.91785759	15.01963242	5.18346110	2.75313361	11.53622994
3076	30.75000000	9.58050584	1.67876853	5.41232544	7.41391612	2.60120309	4.41386755	13.13966827	-0.35614610	-1.63810177	10.08260805	1.28440040	2.35866824	9.22541871	-5.64481380	-3.69503049	6.73071285	-3.08345246	-1.59330194	11.28105831	-2.44991176	12.48299568	5.41593884	2.17232834	11.07530623
3077	30.76000000	8.77546498	1.92615008	5.56856771	7.46478242	2.61076507	4.36465846	11.85163856	1.65077147	1.13113634	10.49642893	1.95128042	2.94405250	10.53904244	-6.92393912	-4.39320420	7.62013920	-2.45338291	-2.64197857	12.43594933	-1.37979340	9.95676544	5.70187481	2.39835210	10.97435512
3078	30.77000000	8.28280093	2.27379507	5.79886163	7.94638631	2.29723099	4.38685220	10.63536833	4.21798696	3.27162119	11.07463850	3.00422008	3.27072644	10.13267229	-8.10590878	-4.06758044	9.87896468	-1.13970340	-3.38233072	18.01009311	-2.65276056	10.80279264	5.66960069	1.83407396	10.84828481
3079	30.78000000	8.40824236	2.41784066	5.94730586	8.47687392	1.75284732	4.44199344	9.82519086	7.13749139	3.62125903	11.36790390	3.61778513	3.14450763	8.30530234	-8.28642671	-2.18484569	12.28764428	0.66426725	-3.78877879	12.06123194	-4.56888603	18.87995218	5.59967783	1.26561654	11.00581457
3080	30.79000000	8.63574035	2.14911688	5.95177039	8.91430569	1.10869908	4.55910010	9.19282554	10.14973220	0.81549713	11.44312318	3.34291588	2.69393156	8.19168328	-6.08435513	0.55265308	12.86804071	2.63134236	-3.86180097	9.44496908	-4.78409395	22.60995892	5.18281918	0.88154258	11.29145273
3081	30.80000000	8.80112384	1.88804636	6.01254155	9.36642026	0.44175765	4.72222890	8.34405817	11.88862234	-3.54622598	11.57021857	2.03984546	1.61302536	9.91421247	-2.64063537	2.20752782	11.70280139	4.21132927	-3.39623083	4.68989720	-5.78507286	20.28438987	5.23676966	0.11696497	11.34219935
3082	30.81000000	8.89478261	1.65098844	6.08159204	9.74848410	-0.03131159	4.71902859	7.18903087	11.42275294	-4.07869990	11.76987638	-0.00320068	0.16042212	11.32165051	-0.36029766	2.03052233	10.26838001	5.02233893	-2.42528480	-3.12750569	-5.61651741	15.79949477	5.40661937	-0.18573896	11.37123459
3083	30.82000000	8.77960307	1.55113845	6.05360504	10.12025875	-0.28015185	4.47365291	5.75956314	9.52206525	-0.31860117	11.78227624	-1.82459528	-0.60324214	11.63822449	0.26359194	1.44175833	8.72237642	5.55121516	-1.51036295	-3.08291692	-3.88224606	13.56258437	5.35301226	0.16496677	11.31057594
3084	30.83000000	8.57359714	1.84153050	6.06361881	10.26836117	-0.30419811	4.21906103	4.49484288	7.41628491	3.45854338	11.45569333	-2.76154308	-0.28892625	10.80056469	0.39575622	1.09726392	8.06279184	5.25952855	-0.75646966	-1.11738106	-2.77239335	14.13438621	5.02339804	0.58719448	11.33223008
3085	30.84000000	8.30452853	2.00977033	5.98598651	10.02193312	-0.15154027	4.11733637	3.64738579	5.64557054	4.45792185	10.81013026	-2.77056760	0.74853337	9.87766335	0.05973117	0.65999730	7.89623846	4.48660943	-0.13085473	-0.91011006	-3.27058594	13.33532297	5.16799368	1.00063321	11.08681701
3086	30.85000000	8.07725420	1.98877129	5.81327934	9.45311128	0.04934416	4.07960024	3.04182290	4.70652004	3.52424378	10.03721097	-2.19274524	1.72355754	9.39073767	-0.80718744	0.11010793	7.58209827	3.68736122	-0.05856835	-1.35211681	-3.99043032	12.31241913	5.14537658	1.13976593	10.93479616
3087	30.86000000	7.75978215	1.90335885	5.71769672	8.88900650	0.12555317	4.04021058	2.86761547	4.75389775	3.07871206	9.54770717	-1.49879227	2.15929640	9.19845703	-1.10203510	-0.33381383	7.49448673	2.75183737	-0.48078697	-1.42289161	-3.48466008	11.84708777	5.20340947	1.20548317	10.87976294
3088	30.87000000	7.56711141	1.57389761	5.65458651	8.32900845	0.05319523	4.03289336	3.09264153	4.89606436	3.28058716	9.16527734	-1.02040442	2.10652876	9.34001961	-0.88887013	-0.06522304	7.72059570	1.99492778	-1.00278921	-0.91167986	-2.31458598	11.86587106	4.81688216	1.28148138	11.13324148
3089	30.88000000	7.49438881	1.20111287	5.63024457	7.70641742	-0.09387078	3.92192895	3.54875003	4.32127739	3.30836469	8.91064132	-0.70717213	1.84254509	9.21390995	-0.48258023	0.21711499	8.11386538	1.45046635	-1.55524555	-0.23416168	-0.99320145	11.98812003	4.83853743	1.17750874	11.09799304
3090	30.89000000	7.60717419	1.04612255	5.62979725	7.19369807	-0.22015607	3.73448816	4.12872869	3.21319087	3.07733281	8.82706609	-0.61104481	1.59467634	9.23083682	0.22581075	0.42863508	8.44679982	1.19346270	-1.98144648	0.47738873	-0.26313682	11.83011275	5.21535018	1.10382719	10.95858982
3091	30.90000000	7.81638645	0.97566347	5.60096843	6.92381129	-0.28773771	3.61287971	4.72227673	2.20654645	2.70571622	8.75804603	-0.60080822	1.47042372	9.52661244	0.55752140	0.81328725	8.58508705	1.30378046	-2.16059138	0.99462372	-0.20010693	11.31209084	5.64986578	0.87062748	10.81998804
3092	30.91000000	7.96873345	0.90073607	5.53431344	6.95720530	-0.33466269	3.53774211	5.17991026	1.63256159	2.70619216	8.59267953	-0.71945353	1.41050481	9.65900735	0.66837510	0.65495120	8.69453619	1.44634406	-2.21850604	1.33691907	-0.03041019	10.86571232	5.44876446	0.65390631	10.83198853
3093	30.92000000	8.09400139	0.89609463	5.56425938	7.20582044	-0.38140945	3.48248005	5.39704329	1.35224440	2.83451728	8.49319505	-0.88508461	1.38069439	9.83566401	0.36768645	0.58018487	8.95550759	1.52094805	-2.13576463	2.26633658	0.54945895	10.90504040	5.12058566	0.80789209	11.08392226
3094	30.93000000	8.18911778	0.97327471	5.67166807	7.52235204	-0.42972934	3.51216006	5.81283188	1.32687074	2.72979722	8.34319700	-1.05810757	1.46594017	10.00728376	-0.10401238	0.92251375	8.98681993	1.71731875	-1.83677882	3.51399746	0.74178595	11.29781199	5.34574779	0.68287029	11.05497891
3095	30.94000000	8.19180670	0.98856124	5.71534456	7.93057825	-0.47329253	3.41098274	6.30243283	1.60667701	2.19213496	8.12570953	-1.32400213	1.58933600	9.99771054	-0.33324239	0.94914436	8.89487175	1.80077159	-1.51738304	4.78678817	0.54004456	11.77912741	5.53943361	0.35038990	10.86875607
3096	30.95000000	8.09657865	1.04949617	5.66893525	8.31939146	-0.48596902	3.26526427	6.64321541	1.83588107	1.24675181	8.00818933	-1.65546739	1.80108223	9.89004966	-0.76267585	0.84307464	8.98583435	1.85874015	-1.27781078	5.89816855	0.46619196	12.06297850	5.33278689	0.31265476	11.06393504
3097	30.96000000	7.99511767	1.15013110	5.63911685	8.73857352	-0.44614045	3.16514525	7.07480051	2.08011627	0.86167905	7.96989540	-1.99563159	1.93645918	9.83784353	-1.24695118	0.87073062	9.20582764	2.09323953	-1.09079631	6.70808789	0.49978439	11.91618333	5.02337785	0.22779952	11.19958129
3098	30.97000000	7.99321825	1.12038959	5.64027593	9.05189797	-0.38228111	2.96760725	7.74298496	2.78800759	1.40602792	7.86963015	-2.25504990	2.00614268	9.70861690	-1.42387315	0.87463583	9.26369066	2.49877215	-1.00260558	7.44282137	0.27327381	11.45273790	5.23732912	0.26857378	11.11657794
3099	30.98000000	8.11192834	1.07979615	5.64367947	9.26465736	-0.41189484	2.73880351	8.94971189	4.04183397	1.78132015	7.72325525	-2.47840644	1.97433579	9.65842170	-1.51293143	0.74024488	9.26929869	2.58960279	-0.99814010	8.04922347	-0.07142134	10.99633546	5.37481016	0.20191286	11.02924158
3100	30.99000000	8.42200701	1.04740182	5.68214204	9.47031127	-0.47066317	2.49203949	10.60259954	5.54519401	1.11675279	7.63029343	-2.65537933	1.78808704	9.84640418	-1.69014588	0.47454306	9.25403274	2.17004926	-1.06194589	9.83338863	-0.86690412	11.53499109	5.48162667	0.09426792	11.01376069
3101	31.00000000	8.76700095	0.99913875	5.70113191	9.53830897	-0.62379787	2.23061068	11.92799406	7.68807835	0.25803552	7.36190461	-2.76108529	1.55323021	9.88835761	-1.86796312	0.37454590	9.09034180	1.72102151	-1.35759655	14.98948735	-1.25587962	13.37655522	5.16190885	0.23150217	11.18970298
3102	31.01000000	9.02353718	0.93903781	5.68744240	9.45858136	-0.87588914	1.98372327	11.81426125	10.30658606	0.01131332	6.91601651	-2.68551286	1.35841031	9.90561432	-1.67759024	0.42761788	9.00229582	1.43090065	-1.73674263	18.85814349	-2.00155504	13.84421235	5.28316282	0.26912515	11.05023206
3103	31.02000000	9.24547271	0.93298337	5.69035026	9.24025233	-1.12151218	1.95752968	10.22334174	11.78619942	0.30346001	6.47793460	-2.60811578	1.36268423	9.90380641	-1.12048492	0.31317590	8.99083901	1.32821931	-2.05710153	19.28317051	-3.01457110	11.32452877	5.39891064	0.29956227	11.05743466
3104	31.03000000	9.29372535	0.93575346	5.77940432	8.99966563	-1.36641832	2.14999111	8.57328347	10.15231201	0.23202146	6.38723787	-2.30889994	1.70706936	10.00132458	-0.91091762	0.04041412	9.01579091	1.20863163	-2.15203988	19.75883080	-1.26227789	8.08800728	5.38257053	0.39644311	11.14758394
3105	31.04000000	9.19799546	0.96230328	5.92633913	8.74210559	-1.50662196	2.28488460	7.91819966	5.89409630	0.25258716	6.34529296	-2.12787963	2.11457525	10.15199396	-0.90823609	0.03327619	9.03907867	1.44717956	-2.16939750	21.13693016	2.34467985	5.81384543	5.24263720	0.42174383	11.22859577
3106	31.05000000	9.16248907	0.90548005	5.81437084	8.63094475	-1.64180768	2.23904393	8.46800105	1.88809990	0.51603552	6.25588584	-2.27621644	2.34379778	10.16657515	-0.70335201	0.11110534	9.23345230	1.83609632	-2.06430589	22.57778116	3.68714006	3.11091450	5.08710409	0.41957075	11.22167687
